<svg width="24" height="24" viewBox="0 0 24 24" fill="none" xmlns="http://www.w3.org/2000/svg">
<g clip-path="url(#clip0_1042_31)">
<path d="M7.312 9H5.688L3.5 15H5.107L5.553 13.774H7.447L7.893 15H9.5L7.312 9ZM5.918 12.774L6.5 11.18L7.082 12.775L5.918 12.774ZM14.744 9H11.244V15H12.744V13H14.744C14.942 13.0037 15.1387 12.9674 15.3223 12.8933C15.506 12.8192 15.6728 12.7088 15.8128 12.5688C15.9528 12.4288 16.0632 12.262 16.1373 12.0783C16.2114 11.8947 16.2477 11.698 16.244 11.5V10.5C16.2477 10.302 16.2114 10.1053 16.1373 9.92167C16.0632 9.73803 15.9528 9.5712 15.8128 9.43118C15.6728 9.29116 15.506 9.1808 15.3223 9.10672C15.1387 9.03263 14.942 8.99634 14.744 9ZM14.744 11.5H12.744V10.5H14.744V11.5ZM18 9L19.5 9V15H18V9Z" fill="white"/>
<path d="M22 6V18H2L2 6L22 6ZM22 4L2 4C1.46957 4 0.960859 4.21071 0.585786 4.58579C0.210714 4.96086 0 5.46957 0 6L0 18C0 18.5304 0.210714 19.0391 0.585786 19.4142C0.960859 19.7893 1.46957 20 2 20H22C22.5304 20 23.0391 19.7893 23.4142 19.4142C23.7893 19.0391 24 18.5304 24 18V6C24 5.46957 23.7893 4.96086 23.4142 4.58579C23.0391 4.21071 22.5304 4 22 4Z" fill="white"/>
</g>
<defs>
<clipPath id="clip0_1042_31">
<rect width="24" height="24" fill="white"/>
</clipPath>
</defs>
</svg>
