<svg width="20" height="20" viewBox="0 0 20 20" fill="none" xmlns="http://www.w3.org/2000/svg">
<g clip-path="url(#clip0_1120_219)">
<path d="M15.3125 0L4.6875 0C2.09867 0 0 2.09867 0 4.6875L0 15.3125C0 17.9013 2.09867 20 4.6875 20H15.3125C17.9013 20 20 17.9013 20 15.3125V4.6875C20 2.09867 17.9013 0 15.3125 0Z" fill="#99424F"/>
<path d="M16.6682 9.88242C16.6682 8.94141 16.0213 8.14977 15.1528 7.92359L17.098 2.1875L7.45791 2.1875L9.40768 7.94172C8.56619 8.18602 7.9465 8.96406 7.9465 9.88688C7.9465 10.5655 8.28572 11.1671 8.80143 11.538C8.59791 11.8276 8.36268 12.0945 8.09572 12.3478C7.59361 12.8183 7.03721 13.1802 6.43557 13.4199C5.89268 13.0535 5.65744 12.4066 5.8701 11.8276C6.69791 11.5743 7.29955 10.8007 7.29955 9.89141C7.29955 8.77406 6.39033 7.8693 5.27744 7.8693C4.1601 7.8693 3.25088 8.77859 3.25088 9.89594C3.25088 10.4478 3.47705 10.9545 3.83893 11.3164C3.80729 11.3798 3.77565 11.443 3.74393 11.5109C3.4408 12.1352 3.09705 12.8409 2.9658 13.6326C2.70346 15.2159 3.13322 16.487 4.16916 17.2063C4.75275 17.6089 5.3951 17.8125 6.08721 17.8125C7.27697 17.8125 8.48479 17.2154 9.6519 16.6363C10.4843 16.2247 11.3438 15.7949 12.1897 15.5868C12.5019 15.5099 12.8276 15.4647 13.1714 15.4149C13.8681 15.3154 14.5874 15.2113 15.2342 14.8359C15.9897 14.3971 16.5054 13.6642 16.6547 12.8228C16.7678 12.1759 16.6547 11.5245 16.3652 10.9545C16.5597 10.6423 16.6682 10.2759 16.6682 9.88242ZM15.7861 9.88242C15.7861 10.5112 15.2749 11.0223 14.6461 11.0223C14.0174 11.0223 13.5062 10.5112 13.5062 9.88242C13.5062 9.67883 13.5604 9.4843 13.6554 9.31695C13.6924 9.25312 13.7348 9.19257 13.7821 9.13594C13.8274 9.08172 13.8817 9.03195 13.9404 8.98672L13.9449 8.98219C13.9811 8.955 14.0219 8.92789 14.0626 8.9007C14.0626 8.9007 14.0671 8.9007 14.0671 8.89617C14.0852 8.88719 14.1033 8.87359 14.1213 8.86453C14.1259 8.86453 14.1304 8.86 14.1349 8.86C14.1531 8.85094 14.1756 8.84195 14.1983 8.83289C14.2209 8.82383 14.2435 8.81477 14.2616 8.8057C14.2661 8.8057 14.2706 8.80117 14.2752 8.80117C14.2933 8.79672 14.3113 8.78766 14.3295 8.78313C14.334 8.78313 14.3431 8.77859 14.3476 8.77859C14.3702 8.77406 14.3883 8.76953 14.4109 8.765H14.4154L14.4833 8.75148C14.4878 8.75148 14.4968 8.75148 14.5013 8.74695C14.5195 8.74695 14.5376 8.74242 14.5556 8.74242H14.5783C14.6009 8.74242 14.6235 8.73789 14.6506 8.73789H14.7095C14.7276 8.73789 14.7411 8.73789 14.7592 8.74242H14.7683C14.8045 8.74695 14.8406 8.75148 14.8768 8.76047C15.3925 8.86906 15.7861 9.33047 15.7861 9.88242ZM8.72002 3.09227L15.8359 3.09227L14.2028 7.91C14.1349 7.92359 14.0671 7.94625 13.9992 7.96883L12.2803 4.46297L10.5567 7.94625C10.4888 7.92359 10.4164 7.91 10.3441 7.89648L8.72002 3.09227ZM11.9545 9.48883C11.8685 9.06359 11.6514 8.68359 11.3438 8.40312L12.2803 6.51219L13.2256 8.44383C12.9452 8.7243 12.7417 9.08172 12.6602 9.48883H11.9545ZM9.68815 8.77406C9.71072 8.76953 9.72885 8.765 9.75143 8.76047H9.76502C9.78314 8.75594 9.80119 8.75594 9.81932 8.75148H9.83736C9.85549 8.75148 9.86908 8.74695 9.88713 8.74695H10.0636C10.0817 8.74695 10.0953 8.75148 10.1088 8.75148C10.1179 8.75148 10.1224 8.75148 10.1314 8.75594C10.1496 8.76047 10.1631 8.76047 10.1812 8.765C10.1857 8.765 10.1903 8.765 10.1993 8.76953C10.2219 8.77406 10.2446 8.77859 10.2626 8.78313H10.2671C10.2853 8.78766 10.3034 8.79219 10.3214 8.80117C10.326 8.80117 10.3305 8.8057 10.3396 8.8057C10.3531 8.81023 10.3712 8.81477 10.3848 8.82383C10.3893 8.82383 10.3938 8.82836 10.3984 8.82836C10.4164 8.83742 10.4346 8.84195 10.4526 8.85094H10.4571C10.4798 8.86 10.4978 8.86906 10.516 8.88266H10.5205C10.5386 8.89172 10.5567 8.90523 10.5748 8.9143C10.5793 8.9143 10.5793 8.91883 10.5838 8.91883C10.6019 8.92789 10.6155 8.94141 10.6336 8.95047L10.6381 8.955C10.6924 8.9957 10.7421 9.04094 10.7919 9.08617L10.7964 9.0907C10.8417 9.14047 10.8869 9.19477 10.9231 9.25359C11.0444 9.43916 11.1089 9.65616 11.1085 9.87789C11.1085 10.5066 10.5974 11.0178 9.96861 11.0178C9.33979 11.0178 8.82861 10.5066 8.82861 9.87789C8.82408 9.34859 9.19049 8.9007 9.68815 8.77406ZM5.23674 8.74242C5.86557 8.74242 6.37674 9.25359 6.37674 9.88242C6.37674 10.5112 5.86557 11.0223 5.23674 11.0223C4.60799 11.0223 4.09674 10.5112 4.09674 9.88242C4.09674 9.25359 4.60799 8.74242 5.23674 8.74242ZM15.759 12.6645C15.6595 13.2435 15.3021 13.7502 14.7773 14.0533C14.2842 14.3383 13.6781 14.4287 13.0402 14.5192C12.6919 14.569 12.3255 14.6233 11.9726 14.7092C11.0317 14.9399 10.1269 15.3923 9.24932 15.8266C8.12744 16.383 7.06885 16.9077 6.08721 16.9077C5.57604 16.9077 5.11916 16.763 4.68486 16.4599C3.68963 15.7723 3.7394 14.483 3.85705 13.7773C3.96565 13.1169 4.26869 12.4971 4.55822 11.9045C4.57627 11.8683 4.58986 11.8366 4.60799 11.8005C4.70931 11.8371 4.81379 11.8643 4.9201 11.8819C4.74822 12.8409 5.23674 13.8316 6.18674 14.3202L6.35861 14.4106L6.54408 14.3428C7.3358 14.0623 8.06861 13.6054 8.71549 12.9947C9.08197 12.6509 9.39408 12.28 9.65643 11.8773C9.76049 11.8955 9.86455 11.9 9.96861 11.9C10.9096 11.9 11.7012 11.253 11.9274 10.3845H12.6874C12.9135 11.2576 13.7052 11.9 14.6461 11.9C15.0216 11.9 15.3699 11.7959 15.6685 11.6195C15.7861 11.9587 15.8223 12.3116 15.759 12.6645Z" fill="white"/>
</g>
<defs>
<clipPath id="clip0_1120_219">
<rect width="20" height="20" fill="white"/>
</clipPath>
</defs>
</svg>
