<svg width="20" height="20" viewBox="0 0 20 20" fill="none" xmlns="http://www.w3.org/2000/svg">
<g clip-path="url(#clip0_1001_217)">
<path d="M4.0667 0.0214048C4.03499 0.0335923 3.13842 0.544374 2.07514 1.15547C0.786704 1.8964 0.125142 2.2864 0.0896729 2.32297C0.0615479 2.35469 0.0298292 2.40969 0.0201417 2.44453C-0.0067333 2.53422 -0.00860831 15.6794 0.0182667 15.7739C0.0281104 15.8105 0.0598292 15.8642 0.0885792 15.8942C0.15811 15.9673 7.84967 20.39 7.94311 20.4114C7.98639 20.4217 8.0353 20.4198 8.08342 20.4066C8.18842 20.3803 15.86 15.9675 15.9283 15.8953C15.9564 15.8642 15.9881 15.8105 15.9986 15.7739C16.012 15.7306 16.0169 15.0433 16.0169 13.5962V11.4812L17.887 10.407C19.6503 9.39328 19.7583 9.32984 19.8034 9.26015L19.8498 9.18515V6.90734C19.8498 4.4275 19.8547 4.56719 19.7564 4.47765C19.7301 4.45422 18.8317 3.93 17.7581 3.31172L15.8081 2.18984H15.5914L13.6836 3.28547C12.6331 3.88984 11.7401 4.40609 11.6967 4.43422C11.6534 4.46281 11.6015 4.51594 11.5801 4.55453L11.5417 4.62094L11.5331 6.76703L11.5253 8.91359L9.94999 9.82109C9.08327 10.3192 8.36186 10.7319 8.34655 10.7355C8.31842 10.7433 8.3167 10.5389 8.3167 6.59422V2.44265L8.27514 2.37125C8.22327 2.28453 8.45639 2.42312 6.11514 1.07734C4.15155 -0.0518765 4.19842 -0.0281264 4.0667 0.0214048ZM5.87155 1.66515C6.69311 2.13625 7.36514 2.52625 7.36514 2.53109C7.36514 2.53594 6.64483 2.95234 5.76483 3.45828L4.16327 4.3775L2.56483 3.45828C1.68639 2.95234 0.96686 2.53594 0.96686 2.53109C0.96686 2.52625 1.68514 2.11 2.56342 1.60515L4.15827 0.687967L4.26811 0.747655C4.32983 0.781249 5.05186 1.19406 5.87155 1.66515ZM17.3015 3.77969C18.1665 4.27781 18.8819 4.68906 18.8886 4.69594C18.9069 4.71234 15.7348 6.53547 15.6915 6.53359C15.6481 6.5325 12.5153 4.72578 12.5165 4.7039C12.5183 4.6789 15.6701 2.86547 15.7019 2.87031C15.7165 2.87406 16.4367 3.28359 17.3015 3.77969ZM2.31686 4.04281L3.84155 4.92047L3.85014 9.26625L3.85795 13.6125L3.8953 13.6711C3.91483 13.7023 3.95155 13.7444 3.97811 13.7639C4.00327 13.7822 4.85155 14.2655 5.86295 14.8362L7.70014 15.8737V17.7122C7.70014 18.7211 7.69342 19.5487 7.68499 19.5487C7.67827 19.5487 6.09014 18.64 4.15655 17.5273L0.641392 15.5059L0.636704 9.2914L0.633579 3.07859L0.711704 3.12187C0.75686 3.14578 1.47827 3.56 2.31686 4.04281ZM7.70014 7.10187L7.70014 11.1064L7.63858 11.1467C7.55499 11.1998 4.50186 12.9545 4.4917 12.9545C4.4867 12.9545 4.48295 11.1467 4.48295 8.93656L4.48483 4.92047L6.07967 4.00328C6.9567 3.49844 7.67999 3.0889 7.68858 3.09187C7.69483 3.09547 7.70014 4.90031 7.70014 7.10187ZM13.7848 6.18094L15.3833 7.1V8.92187C15.3833 10.6505 15.3814 10.7433 15.3551 10.7334C15.3381 10.7267 14.6148 10.3123 13.7469 9.8125L12.1667 8.90484V7.08375C12.1667 6.08094 12.1715 5.26187 12.1765 5.26187C12.1833 5.26187 12.9065 5.67484 13.7848 6.18094ZM19.2333 7.07203C19.2333 8.06937 19.2267 8.89203 19.22 8.9C19.2084 8.91828 16.0467 10.7402 16.0265 10.7402C16.0219 10.7402 16.0169 9.92109 16.0169 8.91828V7.09719L17.6117 6.17922C18.4898 5.675 19.2133 5.26187 19.22 5.26187C19.2286 5.26187 19.2334 6.07594 19.2334 7.07219L19.2333 7.07203ZM13.4734 10.3858C14.8181 11.1597 15.05 11.2983 15.0269 11.3166C15.0115 11.3262 14.5019 11.6192 13.8953 11.9659C13.2886 12.312 11.7169 13.2081 10.4015 13.9575L8.01139 15.3211L7.93514 15.2795C7.47858 15.0298 4.82967 13.523 4.82967 13.5114C4.82842 13.4864 11.8384 9.45797 11.8664 9.46844C11.8798 9.47312 12.6031 9.88609 13.4734 10.3858ZM15.3803 13.6811L15.3747 15.5061L11.8615 17.5275C9.92858 18.64 8.33983 19.5489 8.33186 19.5489C8.32342 19.5489 8.3167 18.8061 8.3167 17.7123V15.8741L11.8384 13.8659C13.7731 12.7619 15.3631 11.858 15.3717 11.8561C15.3784 11.8561 15.3814 12.677 15.3803 13.6811Z" fill="#F05340"/>
</g>
<defs>
<clipPath id="clip0_1001_217">
<rect width="20" height="20" fill="white"/>
</clipPath>
</defs>
</svg>
