<svg width="10" height="20" viewBox="0 0 10 20" fill="none" xmlns="http://www.w3.org/2000/svg">
<path d="M6.39789 2.22615C5.55964 1.23158 4.83778 0.221413 4.69031 0.0116503C4.68681 0.00796893 4.68259 0.00503801 4.67792 0.00303534C4.67325 0.00103267 4.66822 0 4.66314 0C4.65806 0 4.65303 0.00103267 4.64835 0.00303534C4.64368 0.00503801 4.63947 0.00796893 4.63596 0.0116503C4.48849 0.22145 3.76664 1.23158 2.92835 2.22615C-4.26681 11.4027 4.06161 17.5955 4.06161 17.5955L4.13144 17.6422C4.19352 18.5979 4.34878 19.9733 4.34878 19.9733H4.96973C4.96973 19.9733 5.12492 18.6057 5.18704 17.6422L5.25691 17.5878C5.26467 17.5956 13.5931 11.4027 6.39789 2.22615ZM4.65924 17.4557C4.65924 17.4557 4.28667 17.1371 4.18576 16.974V16.9584L4.63596 6.96597C4.63596 6.93489 4.68256 6.93489 4.68256 6.96597L5.13272 16.9584V16.974C5.03181 17.1371 4.65924 17.4557 4.65924 17.4557V17.4557Z" fill="#01EC64"/>
</svg>
