<svg width="30" height="20" viewBox="0 0 30 20" fill="none" xmlns="http://www.w3.org/2000/svg">
<g clip-path="url(#clip0_1001_135)">
<path d="M8.73276 13.1975L9.62445 16.0908C9.8248 16.7477 9.90835 17.2062 9.87488 17.4676C10.3626 16.1615 10.7033 14.7381 10.8972 13.1975H11.9694C11.5083 15.7056 10.9003 17.5282 10.1455 18.6652C9.5574 19.5413 8.91316 19.9794 8.21162 19.9794C8.02457 19.9794 7.79396 19.9229 7.52033 19.8107V19.2061C7.65402 19.2257 7.81087 19.2362 7.99127 19.2362C8.31855 19.2362 8.58233 19.1454 8.78302 18.9644C9.02331 18.7438 9.14359 18.4959 9.14359 18.2211C9.14359 18.0335 9.04978 17.6485 8.86302 17.066L7.62061 13.1975H8.7327H8.73276ZM1.90829 11.4193L3.54153 16.4024H3.55162L5.19488 11.4193H6.53746C6.83144 13.8905 7.00508 16.1517 7.05838 18.2013H5.92646C5.88663 16.2853 5.77631 14.4837 5.59591 12.7961H5.58606L3.86239 18.2013H3.00038L1.28715 12.7961H1.27706C1.14995 14.4168 1.06995 16.2185 1.0366 18.2013H0.00439453C0.0710994 15.7898 0.238034 13.5293 0.505197 11.4193H1.90835H1.90829Z" fill="#00758F"/>
<path d="M20.205 11.3186C21.9619 11.3186 22.8404 12.441 22.8404 14.6848C22.8404 15.904 22.5762 16.825 22.0483 17.4472C21.9532 17.5609 21.848 17.6591 21.7373 17.7501L22.9806 18.3648L22.9794 18.3648L22.5379 19.127L20.9189 18.1823C20.6505 18.2618 20.3552 18.3015 20.0334 18.3015C19.1708 18.3015 18.5264 18.0501 18.1004 17.548C17.6328 16.9924 17.3991 16.1179 17.3991 14.9258C17.3991 13.7134 17.6628 12.7959 18.1908 12.1729C18.6718 11.6031 19.3433 11.3186 20.205 11.3186V11.3186ZM14.8251 11.3285C15.453 11.3285 16.024 11.4965 16.5382 11.8313L16.277 12.4134C15.837 12.2264 15.4031 12.1324 14.9753 12.1324C14.6281 12.1324 14.3606 12.216 14.1741 12.3841C13.9866 12.5508 13.8706 12.7652 13.8706 13.0266C13.8706 13.4284 14.1568 13.7767 14.6852 14.0711C14.8583 14.1657 15.0309 14.2614 15.2028 14.3582L15.2422 14.3804L15.262 14.3915L15.3014 14.4137L15.3212 14.4248L15.3606 14.447C15.7606 14.6725 16.137 14.8878 16.137 14.8878C16.6653 15.2629 16.9287 15.6627 16.9287 16.3214C16.9287 16.8966 16.7179 17.3687 16.2978 17.7382C15.8773 18.106 15.3124 18.2904 14.605 18.2904C13.9434 18.2904 13.3022 18.0781 12.6812 17.6571L12.9717 17.0746C13.5062 17.3425 13.9899 17.4763 14.4242 17.4763C14.8315 17.4763 15.1504 17.3853 15.381 17.2057C15.6112 17.0248 15.7492 16.7725 15.7492 16.4525C15.7492 16.0499 15.4691 15.7056 14.9552 15.4168C14.7944 15.328 14.634 15.2383 14.4741 15.1477L14.4347 15.1254C14.3624 15.0845 14.2896 15.0431 14.2182 15.0026L14.1795 14.9806C13.8326 14.7833 13.5326 14.6108 13.5326 14.6108C13.0189 14.2351 12.7613 13.8319 12.7613 13.1676C12.7613 12.6182 12.9534 12.1742 13.337 11.8363C13.7215 11.4978 14.2176 11.3285 14.8251 11.3285ZM24.9051 11.4193V17.367H27.039V18.2013H23.8228V11.4193H24.9051ZM28.2248 17.3696V17.5105H27.9902V18.2005H27.8108V17.5105H27.5671V17.3696H28.2249H28.2248ZM28.6581 17.3696L28.8833 17.936L29.0903 17.3696H29.3445V18.2005H29.1755V17.5681L28.9399 18.2005H28.8181L28.5821 17.5681H28.5731V18.2005H28.4131V17.3696H28.6581H28.6581ZM20.0946 12.1527C19.0593 12.1527 18.5413 13.0071 18.5413 14.7148C18.5413 15.6931 18.6786 16.4024 18.9526 16.8445C19.2063 17.2537 19.6037 17.4579 20.1449 17.4579C21.1802 17.4579 21.6981 16.5968 21.6981 14.8754C21.6981 13.9109 21.5608 13.2076 21.2872 12.7653C21.0331 12.357 20.6359 12.1527 20.0946 12.1527H20.0946Z" fill="#F29111"/>
<path d="M17.3809 0.420229C17.7244 -0.423667 18.9252 0.215416 19.3912 0.510201C19.5055 0.583954 19.6365 0.739771 19.7674 0.797364C19.9717 0.805387 20.1758 0.821375 20.3805 0.829914C20.7643 0.920115 21.1239 0.993811 21.4263 1.16607C22.8319 1.99387 23.7469 2.83742 24.5891 4.23077C24.769 4.5259 24.8589 4.84527 25.0059 5.16464C25.2099 5.64069 25.4392 6.1404 25.6759 6.59054C25.782 6.80395 25.864 7.04126 26.0112 7.22149C26.0687 7.3039 26.2319 7.3282 26.3295 7.37742C26.5993 7.51708 26.9262 7.6231 27.18 7.78699C27.6538 8.08246 28.112 8.43456 28.5285 8.79502C28.6837 8.93416 28.7895 9.13112 28.9374 9.27828V9.35255C28.8061 9.39284 28.6753 9.4341 28.5444 9.46716C28.2584 9.54063 28.005 9.52401 27.7275 9.59754C27.5561 9.64728 27.3432 9.7129 27.1633 9.72957L27.18 9.7463C27.2857 10.0486 27.8581 10.2944 28.1199 10.4752C28.4378 10.7047 28.7325 10.983 28.9696 11.3026C29.0515 11.3841 29.1334 11.4583 29.2149 11.5397C29.2718 11.6221 29.2879 11.7287 29.3455 11.8021V11.827C29.2817 11.8045 29.2358 11.7615 29.1923 11.7166L29.1663 11.6895C29.1404 11.6625 29.1142 11.636 29.0843 11.6142C28.9039 11.491 28.7248 11.3436 28.5444 11.2291C28.2342 11.0323 27.8745 10.9181 27.5561 10.7205C27.376 10.6058 27.2044 10.4752 27.0327 10.344C26.8771 10.229 26.7058 10.0081 26.608 9.84424C26.5504 9.7537 26.5425 9.64728 26.4767 9.58178C26.4885 9.47238 26.5887 9.43989 26.6899 9.41318L26.7131 9.40705C26.748 9.39799 26.7822 9.38894 26.812 9.37696C27.2369 9.19656 27.7434 9.13112 28.3975 9.14751C28.3729 8.98327 27.9641 8.77862 27.8337 8.68029C27.5718 8.49152 27.2945 8.29456 27.0166 8.12275C26.8694 8.03278 26.6157 7.96711 26.4526 7.89358C26.2319 7.80338 25.7414 7.71324 25.6192 7.54143C25.4114 7.2706 25.2622 6.94756 25.1173 6.62126L25.0779 6.53221C25.0647 6.50253 25.0516 6.47286 25.0384 6.44321C24.8671 6.05026 24.6544 5.64057 24.4828 5.23822C24.393 5.04195 24.3518 4.86969 24.2535 4.68143C23.6571 3.52625 22.7745 2.55908 21.7043 1.87891C21.3526 1.65759 20.9604 1.45278 20.5275 1.31358C20.2822 1.23948 19.9878 1.28046 19.7264 1.22361H19.5543C19.4075 1.18224 19.2849 1.02659 19.1704 0.944527C18.9174 0.772722 18.664 0.657364 18.3614 0.534785C18.2554 0.485616 17.9526 0.371118 17.8469 0.461261C17.7815 0.477708 17.7483 0.502407 17.7322 0.56808C17.6671 0.666075 17.7244 0.813696 17.7649 0.904069C17.8876 1.16596 18.0591 1.3216 18.2147 1.54292C18.3532 1.7392 18.5252 1.96052 18.6233 2.17393C18.8351 2.63266 18.9338 3.14092 19.13 3.5996C19.2028 3.77209 19.318 3.96837 19.4239 4.12395C19.5137 4.24745 19.677 4.33673 19.7264 4.49307C19.8248 4.65696 19.579 5.19777 19.5221 5.36951C19.3092 6.04155 19.3504 6.9757 19.5956 7.55822L19.6087 7.58894L19.6217 7.62006C19.7112 7.83341 19.8071 8.06315 20.0451 8.12281C20.0614 8.10653 20.0451 8.11507 20.0775 8.10653C20.1351 7.65565 20.1514 7.22143 20.3068 6.86865C20.3966 6.64808 20.5759 6.49215 20.6988 6.31209C20.7808 6.36115 20.7808 6.50905 20.8296 6.60693C20.9359 6.8608 21.0502 7.13914 21.1813 7.39375C21.4504 7.91811 21.7532 8.42648 22.0963 8.88516C22.2112 9.049 22.3742 9.22934 22.5213 9.37691C22.5868 9.43404 22.6601 9.46705 22.7094 9.54057H22.7254V9.56533C22.4802 9.47496 22.3248 9.22132 22.1293 9.07324C21.7612 8.7949 21.3203 8.37691 21.0665 7.97582C20.9604 7.74556 20.8457 7.52487 20.7313 7.29576V7.2792C20.6824 7.34464 20.6988 7.40963 20.6743 7.50865C20.5682 7.91811 20.6499 8.38522 20.2822 8.53249C19.8653 8.70499 19.5544 8.25416 19.4239 8.04928C19.0069 7.36928 18.8927 6.22212 19.1868 5.2961C19.2521 5.09112 19.261 4.84527 19.375 4.6816C19.3504 4.53364 19.2363 4.49318 19.1704 4.40252C19.056 4.24756 18.9581 4.06705 18.8685 3.89496C18.6965 3.5588 18.5741 3.15713 18.4435 2.79662C18.386 2.6494 18.3696 2.5016 18.3123 2.36224C18.2147 2.14951 18.0347 1.9361 17.8958 1.74791C17.7078 1.47742 17.1602 0.953181 17.3809 0.420229ZM20.0613 2.02567C20.0831 2.04756 20.1095 2.06671 20.1367 2.08556L20.1696 2.10814C20.2135 2.13851 20.2559 2.17049 20.282 2.21404C20.3232 2.27169 20.3309 2.3286 20.3803 2.38636C20.3803 2.58332 20.3232 2.71427 20.208 2.79587C20.208 2.79587 20.2001 2.80447 20.192 2.81249C20.1267 2.6812 20.0695 2.5506 20.0037 2.41943C19.9226 2.30493 19.8081 2.2141 19.7421 2.08327H19.7262V2.06682C19.8248 2.04246 19.9227 2.02567 20.0613 2.02567Z" fill="#00758F"/>
</g>
<defs>
<clipPath id="clip0_1001_135">
<rect width="29.35" height="20" fill="white"/>
</clipPath>
</defs>
</svg>
