<svg width="24" height="24" viewBox="0 0 24 24" fill="none" xmlns="http://www.w3.org/2000/svg">
<path d="M10.0001 18.75C9.76402 18.7501 9.53208 18.688 9.3276 18.57L7.1876 17.3031C6.86823 17.1244 7.02385 17.0613 7.12948 17.0244C7.46915 16.9194 7.79438 16.7725 8.0976 16.5869C8.12298 16.5751 8.15094 16.5701 8.17883 16.5721C8.20672 16.5742 8.23362 16.5834 8.25698 16.5988L9.90135 17.5756C9.93197 17.5918 9.96609 17.6003 10.0007 17.6003C10.0354 17.6003 10.0695 17.5918 10.1001 17.5756L16.5126 13.8744C16.5426 13.8564 16.5674 13.8309 16.5846 13.8005C16.6018 13.77 16.6108 13.7356 16.6107 13.7006V6.29688C16.6107 6.26134 16.6016 6.2264 16.5842 6.19542C16.5668 6.16444 16.5417 6.13847 16.5114 6.12L10.0989 2.42188C10.0686 2.40485 10.0345 2.3959 9.99979 2.3959C9.96508 2.3959 9.93097 2.40485 9.90073 2.42188L3.49198 6.12125C3.46141 6.13933 3.43602 6.165 3.41829 6.19577C3.40055 6.22653 3.39105 6.26136 3.39073 6.29688L3.39073 13.6975C3.39081 13.7324 3.40018 13.7667 3.41786 13.7967C3.43554 13.8268 3.46091 13.8517 3.49135 13.8688L5.2501 14.8838C6.20323 15.36 6.78698 14.7988 6.78698 14.235L6.78698 6.92813C6.78698 6.8784 6.80673 6.83071 6.84189 6.79554C6.87706 6.76038 6.92475 6.74063 6.97448 6.74063H7.78698C7.8367 6.74063 7.8844 6.76038 7.91956 6.79554C7.95472 6.83071 7.97448 6.8784 7.97448 6.92813L7.97448 14.2356C7.97448 15.5075 7.28198 16.2356 6.07573 16.2356C5.55534 16.2447 5.04311 16.1055 4.59885 15.8344L2.91323 14.8675C2.70859 14.7483 2.5388 14.5776 2.42079 14.3723C2.30279 14.167 2.2407 13.9343 2.24073 13.6975L2.24073 6.29688C2.24012 6.05971 2.30194 5.82655 2.41999 5.62085C2.53804 5.41515 2.70815 5.24413 2.91323 5.125L9.32635 1.4225C9.53293 1.30948 9.76463 1.25024 10.0001 1.25024C10.2356 1.25024 10.4673 1.30948 10.6739 1.4225L17.0864 5.125C17.291 5.24393 17.4608 5.41445 17.5789 5.61953C17.697 5.82461 17.7593 6.05709 17.7595 6.29375V13.6975C17.7591 13.9343 17.6968 14.1669 17.5787 14.3721C17.4606 14.5774 17.2909 14.7482 17.0864 14.8675L10.6739 18.57C10.469 18.6882 10.2366 18.7503 10.0001 18.75V18.75Z" fill="#83CD29"/>
<path d="M8.78369 11.2206C8.78369 11.1709 8.80345 11.1232 8.83861 11.088C8.87377 11.0529 8.92146 11.0331 8.97119 11.0331H9.80057C9.84488 11.0333 9.88771 11.0491 9.92146 11.0778C9.95521 11.1065 9.9777 11.1463 9.98494 11.19C10.1099 12.0344 10.4849 12.46 12.1806 12.46C13.5312 12.46 14.1068 12.1544 14.1068 11.4375C14.1068 11.0244 13.9437 10.7175 11.8443 10.5119C10.0893 10.3381 9.00432 9.94937 9.00432 8.54687C9.00432 7.25312 10.0949 6.48125 11.9231 6.48125C13.9774 6.48125 14.9943 7.19437 15.1231 8.72437C15.125 8.74992 15.1217 8.77559 15.1134 8.79981C15.1051 8.82404 15.0918 8.84629 15.0746 8.86521C15.0573 8.88413 15.0363 8.8993 15.013 8.9098C14.9896 8.9203 14.9643 8.9259 14.9387 8.92625H14.1037C14.0618 8.92566 14.0213 8.91106 13.9887 8.88478C13.9561 8.8585 13.9332 8.82205 13.9237 8.78125C13.7243 7.89312 13.2362 7.60937 11.9237 7.60937C10.4487 7.60937 10.2774 8.12312 10.2774 8.50812C10.2774 8.97437 10.4799 9.11062 12.4712 9.37375C14.4418 9.63437 15.3781 10.0031 15.3781 11.3881C15.3781 12.7856 14.2131 13.5856 12.1812 13.5856C9.37182 13.5894 8.78369 12.3012 8.78369 11.2206V11.2206Z" fill="#83CD29"/>
</svg>
