<svg width="18" height="20" viewBox="0 0 18 20" fill="none" xmlns="http://www.w3.org/2000/svg">
<g clip-path="url(#clip0_1001_157)">
<path d="M15.3298 3.9274C15.316 3.8274 15.2284 3.77206 15.156 3.76596C14.6222 3.72585 14.0883 3.68605 13.5544 3.64658C13.5544 3.64658 12.4923 2.59213 12.3757 2.47541C12.2591 2.35877 12.0313 2.39425 11.9428 2.42028C11.9298 2.42411 11.7108 2.49172 11.3485 2.60384C10.9937 1.58288 10.3675 0.644661 9.26592 0.644661C9.23551 0.644661 9.20421 0.645894 9.17291 0.647675C8.85962 0.23336 8.47154 0.05336 8.13633 0.05336C5.57023 0.05336 4.34428 3.26124 3.95989 4.89137C2.96277 5.20035 2.25441 5.42 2.16393 5.44843C1.60736 5.62302 1.58975 5.64055 1.51667 6.165C1.46167 6.56206 0.00537109 17.8243 0.00537109 17.8243L11.3532 19.9505L17.5018 18.6203C17.5018 18.6203 15.3434 4.0274 15.3298 3.9274H15.3298ZM10.7213 2.79781L9.76106 3.095C9.7614 3.02733 9.76174 2.96076 9.76174 2.88795C9.76174 2.25343 9.67366 1.74254 9.53236 1.33754C10.1 1.40877 10.478 2.05459 10.7213 2.79781ZM8.82825 1.46336C8.98606 1.85877 9.08866 2.42624 9.08866 3.19199C9.08866 3.23117 9.08832 3.26699 9.08797 3.30322C8.46352 3.49665 7.78496 3.70665 7.10489 3.91733C7.48674 2.44363 8.2025 1.73185 8.82825 1.46336V1.46336ZM8.06585 0.741648C8.1766 0.741648 8.28818 0.77925 8.39496 0.852744C7.57256 1.23973 6.69106 2.21439 6.3188 4.16076L4.75126 4.64624C5.18729 3.16165 6.22263 0.741648 8.06578 0.741648H8.06585Z" fill="#95BF46"/>
<path d="M15.156 3.76595C14.6222 3.72584 14.0883 3.68605 13.5544 3.64657C13.5544 3.64657 12.4923 2.59212 12.3757 2.47541C12.3321 2.43198 12.2733 2.40972 12.2118 2.40013L11.3538 19.9503L17.5018 18.6203C17.5018 18.6203 15.3433 4.02739 15.3298 3.92739C15.316 3.82739 15.2284 3.77205 15.156 3.76595" fill="#5E8E3E"/>
<path d="M9.26599 7.16335L8.50784 9.41855C8.50784 9.41855 7.84359 9.06403 7.02935 9.06403C5.83565 9.06403 5.77558 9.81314 5.77558 10.0019C5.77558 11.0319 8.46051 11.4266 8.46051 13.8392C8.46051 15.7373 7.25661 16.9596 5.63332 16.9596C3.68537 16.9596 2.68921 15.7473 2.68921 15.7473L3.21078 14.024C3.21078 14.024 4.23476 14.9031 5.0988 14.9031C5.66339 14.9031 5.89304 14.4586 5.89304 14.1338C5.89304 12.7902 3.6903 12.7303 3.6903 10.5225C3.6903 8.66438 5.024 6.86623 7.7162 6.86623C8.75352 6.86623 9.26599 7.16335 9.26599 7.16335" fill="white"/>
</g>
<defs>
<clipPath id="clip0_1001_157">
<rect width="17.54" height="20" fill="white"/>
</clipPath>
</defs>
</svg>
