<svg width="20" height="20" viewBox="0 0 20 20" fill="none" xmlns="http://www.w3.org/2000/svg">
<g clip-path="url(#clip0_1042_13)">
<path d="M0 6.93336C0 3.66492 0 2.0307 1.01539 1.01539C2.0307 0 3.66484 0 6.93336 0L13.0667 0C16.3351 0 17.9692 0 18.9847 1.01539C20 2.0307 20 3.66484 20 6.93336V13.0667C20 16.3351 20 17.9692 18.9846 18.9847C17.9692 20 16.3352 20 13.0666 20H6.93344C3.665 20 2.03078 20 1.01547 18.9846C0 17.9692 0 16.3352 0 13.0666L0 6.93336Z" fill="#4945FF"/>
<path d="M13.8 6.06664H7.06665V9.49999H10.5V12.9333H13.9333V6.19999C13.9333 6.12632 13.8736 6.06664 13.8 6.06664Z" fill="white"/>
<path d="M10.3667 9.5H10.5001V9.63336H10.3667V9.5Z" fill="white"/>
<path d="M7.06671 9.49999H10.3667C10.4404 9.49999 10.5001 9.55968 10.5001 9.63328V12.9333H7.20007C7.18256 12.9333 7.16522 12.9298 7.14905 12.9232C7.13287 12.9165 7.11816 12.9066 7.10578 12.8943C7.09339 12.8819 7.08357 12.8672 7.07687 12.851C7.07016 12.8348 7.06671 12.8175 7.06671 12.8V9.49999ZM10.5001 12.9333H13.9334L10.6138 16.2528C10.5719 16.2948 10.5001 16.2651 10.5001 16.2058V12.9333ZM7.06671 9.49999H3.79429C3.73492 9.49999 3.70523 9.42812 3.74718 9.38617L7.06671 6.06664V9.49999Z" fill="#9593FF"/>
</g>
<defs>
<clipPath id="clip0_1042_13">
<rect width="20" height="20" fill="white"/>
</clipPath>
</defs>
</svg>
