<svg width="20" height="20" viewBox="0 0 20 20" fill="none" xmlns="http://www.w3.org/2000/svg">
<g clip-path="url(#clip0_1042_18)">
<path d="M15.3125 0L4.6875 0C2.09867 0 0 2.09867 0 4.6875L0 15.3125C0 17.9013 2.09867 20 4.6875 20H15.3125C17.9013 20 20 17.9013 20 15.3125V4.6875C20 2.09867 17.9013 0 15.3125 0Z" fill="#0073AA"/>
<path d="M3.29785 9.99953C3.29785 12.6523 4.83949 14.9448 7.07496 16.0312L3.87809 7.27211C3.49487 8.13027 3.29714 9.05968 3.29785 9.99953ZM14.5239 9.66133C14.5239 8.83312 14.2264 8.25953 13.9713 7.81304C13.6315 7.26101 13.3131 6.79351 13.3131 6.24148C13.3131 5.62539 13.7804 5.05195 14.4385 5.05195C14.4682 5.05195 14.4964 5.05562 14.5254 5.05726C13.333 3.96492 11.7445 3.29797 9.99965 3.29797C7.6584 3.29797 5.59848 4.49922 4.4002 6.31875C4.55738 6.32343 4.70559 6.32679 4.83145 6.32679C5.53246 6.32679 6.61754 6.24164 6.61754 6.24164C6.97879 6.22039 7.02145 6.75101 6.66051 6.79375C6.66051 6.79375 6.29746 6.83648 5.89348 6.85765L8.33395 14.1169L9.80059 9.7182L8.75645 6.85742C8.39559 6.83625 8.05371 6.79351 8.05371 6.79351C7.69254 6.77234 7.73488 6.22015 8.09606 6.24148C8.09606 6.24148 9.20278 6.32648 9.86129 6.32648C10.5622 6.32648 11.6474 6.24148 11.6474 6.24148C12.0089 6.22015 12.0514 6.75078 11.6904 6.79351C11.6904 6.79351 11.3265 6.83625 10.9233 6.85742L13.3453 14.0616L14.0137 11.8279C14.3035 10.9009 14.5239 10.2351 14.5239 9.66133Z" fill="white"/>
<path d="M10.1175 10.5858L8.10669 16.4287C8.72145 16.6098 9.35902 16.7018 9.99989 16.7018C10.7579 16.7021 11.5104 16.5736 12.2254 16.3219C12.2068 16.2926 12.1908 16.2617 12.1777 16.2295L10.1175 10.5858ZM15.8804 6.78422C15.9109 7.01263 15.926 7.24284 15.9256 7.47328C15.9256 8.15336 15.7986 8.91789 15.416 9.87383L13.3689 15.7925C15.3613 14.6306 16.7015 12.4721 16.7015 9.99969C16.7015 8.83445 16.404 7.73875 15.8804 6.78422Z" fill="white"/>
<path d="M9.99984 2.1875C5.69219 2.1875 2.1875 5.69195 2.1875 9.99953C2.1875 14.3077 5.69219 17.812 9.99984 17.812C14.3073 17.812 17.8125 14.3077 17.8125 9.99953C17.8123 5.69195 14.3073 2.1875 9.99984 2.1875ZM9.99984 17.4539C5.88969 17.4539 2.5457 14.1098 2.5457 9.99953C2.5457 5.88945 5.88961 2.5457 9.99984 2.5457C14.1098 2.5457 17.4535 5.88945 17.4535 9.99953C17.4535 14.1098 14.1098 17.4539 9.99984 17.4539Z" fill="white"/>
</g>
<defs>
<clipPath id="clip0_1042_18">
<rect width="20" height="20" fill="white"/>
</clipPath>
</defs>
</svg>
