<svg width="20" height="20" viewBox="0 0 20 20" fill="none" xmlns="http://www.w3.org/2000/svg">
<path d="M14.2876 6.93125L10.1938 12.8437C10.1504 12.9045 10.0893 12.9503 10.0188 12.975C9.94596 13.0002 9.86671 13.0002 9.79383 12.975C9.72068 12.9523 9.65701 12.9062 9.61258 12.8437C9.57141 12.7785 9.55174 12.702 9.55633 12.625L9.71883 9.375L7.07508 8.8125C7.01966 8.80027 6.96812 8.7745 6.92508 8.7375C6.87968 8.70179 6.84507 8.65419 6.82508 8.6C6.80961 8.54481 6.80961 8.48643 6.82508 8.43125C6.82987 8.3741 6.85163 8.31968 6.88758 8.275L10.9751 2.3625C11.0192 2.2984 11.0827 2.2502 11.1563 2.225C11.2271 2.20023 11.3043 2.20023 11.3751 2.225C11.4487 2.2502 11.5122 2.2984 11.5563 2.3625C11.5992 2.42465 11.6191 2.49978 11.6126 2.575L11.4501 5.8375L14.0938 6.4C14.1512 6.412 14.2048 6.43773 14.2501 6.475C14.2922 6.51374 14.3262 6.56048 14.3501 6.6125C14.3689 6.66702 14.3753 6.72506 14.3688 6.78236C14.3623 6.83967 14.3431 6.89481 14.3126 6.94375L14.2876 6.93125Z" fill="#FCC72B"/>
<path d="M10.0001 17.8062C9.89304 17.8042 9.78722 17.783 9.6876 17.7437C9.58675 17.702 9.49535 17.6404 9.41885 17.5625L5.5501 13.6937C5.47487 13.6194 5.41514 13.5308 5.37438 13.4332C5.33361 13.3355 5.31261 13.2308 5.3126 13.125C5.31091 13.0162 5.3311 12.9082 5.37196 12.8073C5.41282 12.7064 5.47353 12.6148 5.55048 12.5379C5.62742 12.4609 5.71904 12.4002 5.8199 12.3594C5.92075 12.3185 6.02879 12.2983 6.1376 12.3C6.24634 12.2989 6.35423 12.3193 6.45506 12.3601C6.55589 12.4009 6.64766 12.4611 6.7251 12.5375L10.0001 15.8062L17.1438 8.6625C17.2213 8.58614 17.3131 8.52585 17.4139 8.48509C17.5147 8.44433 17.6226 8.42391 17.7313 8.425C17.8395 8.42521 17.9466 8.44686 18.0464 8.4887C18.1461 8.53054 18.2366 8.59173 18.3126 8.66875C18.3902 8.7443 18.4517 8.8347 18.4936 8.93457C18.5355 9.03443 18.5568 9.14171 18.5563 9.25C18.5556 9.46722 18.4704 9.67563 18.3188 9.83125L10.5876 17.5625C10.5099 17.6389 10.4188 17.7003 10.3188 17.7437C10.2172 17.7836 10.1092 17.8048 10.0001 17.8062Z" fill="#729B1B"/>
<path d="M10.0001 17.8062C10.1072 17.8042 10.213 17.783 10.3126 17.7437C10.4135 17.702 10.5049 17.6404 10.5814 17.5625L14.4501 13.6937C14.5253 13.6194 14.5851 13.5308 14.6258 13.4332C14.6666 13.3355 14.6876 13.2308 14.6876 13.125C14.6893 13.0162 14.6691 12.9082 14.6282 12.8073C14.5874 12.7064 14.5267 12.6148 14.4497 12.5379C14.3728 12.4609 14.2812 12.4002 14.1803 12.3594C14.0794 12.3185 13.9714 12.2983 13.8626 12.3C13.7539 12.2989 13.646 12.3193 13.5451 12.3601C13.4443 12.4009 13.3525 12.4611 13.2751 12.5375L10.0001 15.8062L2.85636 8.6625C2.77892 8.58614 2.68714 8.52585 2.58632 8.48509C2.48549 8.44433 2.3776 8.42391 2.26886 8.425C2.16067 8.42521 2.0536 8.44686 1.95384 8.4887C1.85407 8.53054 1.76358 8.59173 1.68761 8.66875C1.61002 8.7443 1.54846 8.8347 1.50658 8.93457C1.4647 9.03443 1.44337 9.14171 1.44386 9.25C1.44465 9.46722 1.52981 9.67563 1.68136 9.83125L9.41261 17.5625C9.4903 17.6389 9.5814 17.7003 9.68136 17.7437C9.78297 17.7836 9.89096 17.8048 10.0001 17.8062Z" fill="#729B1B" fill-opacity="0.5"/>
</svg>
